<svg width="24" height="24" viewBox="0 0 24 24" fill="none" xmlns="http://www.w3.org/2000/svg">
<path d="M22.584 8.40139C22.5718 8.29339 22.5481 8.18699 22.5134 8.08389V7.97809C22.4569 7.85719 22.3815 7.74599 22.29 7.64879L15.234 0.59279C15.1367 0.50129 15.0256 0.42589 14.9047 0.36939C14.8697 0.36439 14.834 0.36439 14.7989 0.36939C14.6794 0.30079 14.5475 0.25689 14.4108 0.23999H9.64802C8.71232 0.23999 7.81502 0.61169 7.15332 1.27329C6.49172 1.93499 6.12002 2.83229 6.12002 3.76799V4.94399H4.94402C4.00832 4.94399 3.11102 5.31569 2.44932 5.97729C1.78772 6.63899 1.41602 7.53629 1.41602 8.47199V20.232C1.41602 21.1676 1.78772 22.065 2.44932 22.7267C3.11102 23.3883 4.00832 23.76 4.94402 23.76H14.352C15.2876 23.76 16.185 23.3883 16.8467 22.7267C17.5083 22.065 17.88 21.1676 17.88 20.232V19.056H19.056C19.9916 19.056 20.889 18.6843 21.5507 18.0227C22.2123 17.361 22.584 16.4636 22.584 15.528V8.40139ZM15.528 4.25019L18.5738 7.29599H16.704C16.3921 7.29599 16.093 7.17209 15.8725 6.95159C15.652 6.73099 15.528 6.43189 15.528 6.11999V4.25019ZM15.528 20.232C15.528 20.5439 15.4041 20.843 15.1836 21.0636C14.9631 21.2842 14.6639 21.408 14.352 21.408H4.94402C4.63212 21.408 4.33302 21.2841 4.11242 21.0636C3.89192 20.843 3.76802 20.5439 3.76802 20.232V8.47199C3.76802 8.16009 3.89192 7.86099 4.11242 7.64039C4.33302 7.41989 4.63212 7.29599 4.94402 7.29599H6.12002V15.528C6.12002 16.4636 6.49172 17.361 7.15332 18.0227C7.81502 18.6843 8.71232 19.056 9.64802 19.056H15.528V20.232ZM20.232 15.528C20.232 15.8399 20.1081 16.139 19.8876 16.3596C19.6671 16.5802 19.3679 16.704 19.056 16.704H9.64802C9.33612 16.704 9.03702 16.5801 8.81642 16.3596C8.59592 16.139 8.47201 15.8399 8.47201 15.528V3.76799C8.47201 3.45609 8.59592 3.15699 8.81642 2.93639C9.03702 2.71589 9.33612 2.59199 9.64802 2.59199H13.176V6.11999C13.176 7.05569 13.5477 7.95299 14.2094 8.61469C14.871 9.27629 15.7684 9.64799 16.704 9.64799H20.232V15.528Z" fill="white"/>
</svg>
