<svg width="24" height="24" viewBox="0 0 24 24" fill="none" xmlns="http://www.w3.org/2000/svg">
<path d="M18.8667 10.8548C19.4987 10.8548 20.0116 11.3676 20.0116 11.9997C20.0116 12.6317 19.4987 13.1446 18.8667 13.1446H13.1449V18.8663C13.1449 19.4984 12.632 20.0112 12 20.0112C11.3679 20.0112 10.8551 19.4984 10.8551 18.8663V13.1446H5.13333C4.50128 13.1446 3.98845 12.6317 3.98843 11.9997C3.98842 11.3676 4.50127 10.8548 5.13333 10.8548H10.8551V5.13299C10.8551 4.50093 11.3679 3.98808 12 3.98809C12.632 3.98814 13.1449 4.50096 13.1449 5.13299V10.8548H18.8667Z" fill="#CE7C2A"/>
</svg>
