<svg width="24" height="24" viewBox="0 0 24 24" fill="none" xmlns="http://www.w3.org/2000/svg">
<path d="M19.6666 11.0417C19.4323 9.35521 18.6499 7.79259 17.4401 6.59452C16.2303 5.39645 14.6601 4.62938 12.9714 4.41149C11.2827 4.1936 9.56928 4.53697 8.09496 5.3887C6.62064 6.24043 5.46726 7.55328 4.81248 9.125M4.33331 5.29167V9.125H8.16665" stroke="#F7CB15" stroke-linecap="round" stroke-linejoin="round"/>
<path d="M4.33331 12.9584C4.56768 14.6448 5.35004 16.2075 6.55987 17.4055C7.7697 18.6036 9.33988 19.3707 11.0285 19.5886C12.7172 19.8064 14.4307 19.4631 15.905 18.6113C17.3793 17.7596 18.5327 16.4468 19.1875 14.875M19.6666 18.7084V14.875H15.8333" stroke="white" stroke-linecap="round" stroke-linejoin="round"/>
</svg>
